# xmcd CD database file
#
# Track frame offsets:
#	150
#	14256
#	24367
#	38761
#	53899
#	71354
#	99753
#	111189
#	131161
#	146444
#
# Disc length: 2265 seconds
#
# Revision: 0
# Processed by: cddbd v1.5.1PL0 Copyright (c) Steve Scherf et al.
# Submitted via: CDex 1.50beta8
#
DISCID=7b08d70a
DTITLE=Cutthroat - The Time That It Worth
DYEAR=1998
DGENRE=Hardcore
TTITLE0=Sun city
TTITLE1=Blackball
TTITLE2=Screw
TTITLE3=Ground
TTITLE4=Excuses
TTITLE5=No regard for human life
TTITLE6=Fool
TTITLE7=Just because
TTITLE8=Snake
TTITLE9=My removal
EXTD=YEAR: 1998
EXTT0=
EXTT1=
EXTT2=
EXTT3=
EXTT4=
EXTT5=
EXTT6=
EXTT7=
EXTT8=
EXTT9=
PLAYORDER=
